<svg height="24" width="24" xmlns="http://www.w3.org/2000/svg" xmlns:xlink="http://www.w3.org/1999/xlink"><linearGradient id="a"><stop offset="0"/><stop offset="1" stop-opacity="0"/></linearGradient><linearGradient id="b" gradientTransform="matrix(.56756754 0 0 .40540542 -1.621623 3.270271)" gradientUnits="userSpaceOnUse" x1="40.290417" x2="40.290417" y1="6.733331" y2="41.266663"><stop offset="0" stop-color="#fff"/><stop offset="0" stop-color="#fff" stop-opacity=".235294"/><stop offset="1" stop-color="#fff" stop-opacity=".156863"/><stop offset="1" stop-color="#fff" stop-opacity=".392157"/></linearGradient><linearGradient id="c" gradientTransform="matrix(.52272194 0 0 .48571424 -.545325 .128572)" gradientUnits="userSpaceOnUse" x1="23.25" x2="23.25" y1="-28.809029" y2="70.294914"><stop offset="0" stop-color="#fafafa"/><stop offset="1" stop-color="#d4d4d4"/></linearGradient><linearGradient id="d" gradientTransform="matrix(.5622223 0 0 .51637694 .193332 8.909712)" gradientUnits="userSpaceOnUse" x1="10" x2="20" y1="-3" y2="12"><stop offset="0" stop-color="#fff"/><stop offset="1" stop-color="#fff" stop-opacity="0"/></linearGradient><linearGradient id="e" gradientTransform="matrix(.04224859 0 0 .00617648 -3.269828 18.735404)" gradientUnits="userSpaceOnUse" x1="302.85715" x2="302.85715" y1="366.64789" y2="609.50507"><stop offset="0" stop-opacity="0"/><stop offset=".5"/><stop offset="1" stop-opacity="0"/></linearGradient><radialGradient id="f" cx="605.71429" cy="486.64789" gradientTransform="matrix(-.01445832 0 0 .00617648 10.513465 18.735417)" gradientUnits="userSpaceOnUse" r="117.14286" xlink:href="#a"/><radialGradient id="g" cx="605.71429" cy="486.64789" gradientTransform="matrix(.01445833 0 0 .00617648 13.486574 18.735417)" gradientUnits="userSpaceOnUse" r="117.14286" xlink:href="#a"/><path d="m1.800003 20.999998h20.400034v1.500003h-20.400034z" fill="url(#e)" opacity=".15"/><path d="m1.8000031 21.000062v1.49992c-.7445682.002824-1.8000031-.336056-1.8000031-.750056s.83088183-.749863 1.8000031-.749864z" fill="url(#f)" opacity=".15"/><path d="m22.200038 21.000062v1.49992c.744568.0028 1.800003-.336056 1.800003-.750056s-.830882-.749863-1.800003-.749864z" fill="url(#g)" opacity=".15"/><rect fill="url(#c)" height="17" rx="1.532609" ry="1.513262" width="22.999765" x=".500118" y="4.5"/><path d="m10 7c-3.3137085 0-6 2.6862915-6 6 0 3.313708 2.6862915 6 6 6h4c3.313708 0 6-2.686292 6-6 0-3.3137085-2.686292-6-6-6zm.5 1.5c2.485519.0007805 4.499629 2.014064 4.5 4.5-.000351 2.485505-2.014475 4.499218-4.5 4.5-2.4849639-.000782-4.499415-2.014495-4.5-4.5.000585-2.485936 2.0150584-4.4992195 4.5-4.5zm-.75 1.605469c-1.2918941.334413-2.2496713 1.497605-2.25 2.894531.0003287 1.396684.9580992 2.56006 2.25 2.894531zm1.5 0v5.789062c1.292071-.334471 2.249803-1.497847 2.25-2.894531-.000209-1.396926-.957933-2.560118-2.25-2.894531z" fill="#0079be"/><rect fill="none" height="17" opacity=".5" rx="1.532609" ry="1.513262" stroke="#555761" stroke-linecap="round" stroke-linejoin="round" width="22.999765" x=".500118" y="4.5"/><rect fill="none" height="15" rx=".5" stroke="url(#b)" stroke-linecap="round" stroke-linejoin="round" width="21" x="1.5" y="5.5"/><path d="m2.4666667 5c-.8125333 0-1.4666667.5922106-1.4666667 1.3278266v7.6721734l22-6.6304865v-1.0416869c0-.735616-.654134-1.3278266-1.466667-1.3278266z" fill="url(#d)" opacity=".3"/></svg>