<svg height="471" viewBox="0 0 750 471" width="750" xmlns="http://www.w3.org/2000/svg"><g fill="none"><path d="m697.115385 0h-644.2307696c-29.1605769 0-52.8846154 23.1955749-52.8846154 51.7065868v367.5868262c0 28.511012 23.7240385 51.706587 52.8846154 51.706587h644.2307696c29.158653 0 52.884615-23.195575 52.884615-51.706587v-367.5868262c0-28.5110119-23.725962-51.7065868-52.884615-51.7065868z" fill="#fff"/><path d="m321.004048 378.440089-274.004048.098495v-.659826c0-.362427.4370157-2.713896.9706147-5.226019.5345553-2.511167 1.3645982-6.506466 1.8465586-8.877061.4800478-2.371551 1.3024406-6.400319 1.8255206-8.954518.5240363-2.552286 1.3951988-6.805778 1.9354918-9.450822.5393366-2.644089 1.3846798-6.822991 1.8790717-9.284432.4943919-2.463353 1.317741-6.493077 1.8322146-8.954518.5135173-2.462397 1.3904175-6.714932 1.9479232-9.450823.5565495-2.73589 1.402849-6.914793 1.8809844-9.286344.4781353-2.371551 1.2374141-6.027373 1.6878176-8.123519.4494472-2.098057 1.0241659-4.9334 1.2747088-6.301823.2514991-1.367467 1.0652854-5.397192 1.8083077-8.953562s1.56159-7.586095 1.8216956-8.953562c.2591493-1.368423 1.0824983-5.398148 1.8303019-8.954518.7468474-3.555414 1.5673276-7.585139 1.8236081-8.953562.2562806-1.367467 1.0815421-5.397191 1.8331708-8.953562.7535413-3.557327 1.5663713-7.511506 1.805439-8.788127.2409802-1.276621.8988944-4.559498 1.463094-7.295389.5632434-2.73589 1.6304415-7.884451 2.3705949-11.440821.7411098-3.557327 2.0072121-9.750136 2.8133482-13.763603.8080487-4.012512 1.7729258-8.787171 2.144915-10.610779.371033-1.823608 1.0432913-5.107442 1.4936947-7.296345.4504035-2.188904 1.2670586-6.143083 1.815958-8.787171.5488993-2.646001 1.4410998-6.973125 1.9833053-9.61817.5431617-2.644088 1.3789422-6.748402 1.8580338-9.118997.4790916-2.371551 1.296703-6.32573 1.8169142-8.788127s1.4152805-6.790478 1.9890429-9.617213c.5737624-2.827693 1.5348143-7.154817 2.1353523-9.617214.6005379-2.462397 1.4497063-5.446918 1.8876782-6.631737.4370157-1.186732 1.6447854-3.755275 2.6832954-5.711804l1.888634-3.554458 1.716506-2.249149c.942883-1.235502 2.628788-3.189162 3.744756-4.340512s2.997908-2.884112 4.18464-3.849946c1.18482-.966789 2.901325-2.271143 3.812651-2.898456.912282-.627314 2.703377-1.726069 3.979999-2.441359 1.276621-.71529 3.068672-1.651479 3.979998-2.080845.912282-.429365 2.777966-1.2144636 4.145433-1.7432813 1.367467-.5278613 3.979042-1.4143242 5.80265-1.9680049 1.823608-.554637 5.248014-1.3904175 7.609046-1.8561213 2.361032-.4666601 6.090487-1.0901485 8.290866-1.3856361l3.998168-.5374241 274.169483-.1032773 274.168526-.106146v.6598267c0 .3624266-.439884 2.7138961-.976352 5.2250627-.53838 2.5111666-1.436319 6.8048216-1.996693 9.5407126-.561331 2.73589-1.377986 6.691025-1.817871 8.788127-.438928 2.098057-1.270883 6.126825-1.848471 8.953561-.576631 2.827693-1.465006 7.155774-1.972786 9.617214-.50778 2.462397-1.331129 6.492121-1.82839 8.953562-.49726 2.463353-1.325391 6.492121-1.838908 8.954518-.51543 2.462397-1.311047 6.342943-1.771969 8.622692-.460923 2.27975-1.293835 6.383107-1.85134 9.118997-.558462 2.73589-1.454488 7.063971-1.991912 9.617214-.53838 2.553242-1.355992 6.508378-1.818827 8.788127-.464747 2.279749-1.297659 6.383106-1.853252 9.118997-.55655 2.73589-1.450663 7.063971-1.988087 9.61817-.537424 2.553242-1.337823 6.432832-1.77962 8.621736-.44084 2.187947-1.271839 6.29226-1.845602 9.118996-.574719 2.826736-1.409543 6.93105-1.85899 9.12091-.449447 2.187947-1.249846 6.068493-1.77962 8.620779-.531686 2.554199-1.439187 6.956869-2.015818 9.783605-.5795 2.827692-1.406674 6.855504-1.838908 8.954518-.434147 2.096145-1.244109 6.051281-1.802571 8.786215-.557505 2.737803-1.444925 7.063971-1.972786 9.61817-.526905 2.553242-1.353123 6.582967-1.836996 8.954518-.48196 2.370595-1.322522 6.474908-1.864728 9.118997-.544118 2.644088-1.431537 6.972169-1.972786 9.616257-.541249 2.645045-1.352167 6.60018-1.80257 8.789083-.450403 2.187948-1.272796 6.217672-1.828389 8.953562-.555594 2.735891-1.460226 7.047715-2.009125 9.580876l-.998347 4.606355-1.1896 3.186294c-.654089 1.752844-1.638092 4.082319-2.186991 5.177249-.546987 1.093018-1.662955 3.024684-2.478654 4.290787-.816655 1.265146-1.954617 2.886024-2.528379 3.602271-.573763.716247-2.301744 2.565674-3.841339 4.111007l-2.795179 2.806655-2.691902 1.912541c-1.480307 1.051898-3.075366 2.121965-3.542983 2.377289-.468572.255324-2.252017 1.16665-3.963742 2.022512-1.710768.857775-4.129176 1.947923-5.371372 2.42319-1.243151.477179-3.705548 1.28714-5.47178 1.800658-1.766232.515429-3.659648 1.022253-4.206635 1.126486-.547943.10519-2.44614.497261-4.220978.874032-1.773882.375814-5.355116.937145-7.958084 1.246977l-4.73354.563243zm-97.486053-70.873998h7.129954l.200817-.524993c.111884-.288793.201773-.966789.201773-1.507082 0-.541249.235243-2.505429.52308-4.366332.286881-1.862815.960096-6.145951 1.49752-9.519674.536468-3.374679 1.339735-8.448651 1.785357-11.275387.445622-2.827692.98974-6.44622 1.209682-8.042236.218986-1.596016.485786-2.901325.593844-2.901325.107103 0 .568025.704772 1.024166 1.567328l.828131 1.566371 1.837952 1.853252 1.838908 1.85134 2.262537.906545 2.263492.905588 2.696683.349995 2.69764.349039 3.422492-.209423 3.423449-.21038 3.706505-.959139 3.707461-.960096 1.989043-.906545c1.09493-.500129 3.034247-1.589321 4.310868-2.421277l2.321825-1.511864 2.164041-2.16404c1.190557-1.187688 2.869768-3.096404 3.730411-4.239148.862557-1.141787 1.567328-2.159259 1.567328-2.260624 0-.10232.423628-.809004.94097-1.572108.517343-.762148 1.574978-2.879331 2.35147-4.702939.777448-1.823608 1.989999-5.106486 2.697639-7.295389l1.285228-3.979998.664608-3.4464c.365295-1.895328.835781-5.029027 1.045204-6.964519l.379639-3.516207-.219942-2.98452-.218986-2.984521-.69234-2.985477-.691384-2.984521-1.120749-2.233848-1.119793-2.234804-2.16404-2.294093-2.163084-2.294094-2.559937-1.322522-2.559936-1.322522-2.819086-.676084-2.819086-.67417-2.819086-.206555-2.818129-.206554-3.139437.360514-3.141349.360514-2.561849.655045-2.562805.653133-2.227154 1.031816c-1.224027.565156-3.006515 1.52812-3.958961 2.138221-.953401.610101-1.937404 1.311047-2.186034 1.558721-.247674.247674-.843431.707641-1.321566 1.019385l-.871163.570893.608188-2.913756c.335651-1.601754.614882-3.098317.622533-3.327822l.013387-.414065h-6.080925-6.079012l-1.065285 6.715888c-.587151 3.694074-1.512821 9.401097-2.057895 12.68493-.545074 3.282877-1.368423 8.206715-1.827433 10.942605s-1.278534 7.586095-1.821696 10.778126c-.542205 3.191075-1.438231 8.266004-1.991911 11.275387-.553681 3.009384-1.363642 7.412054-1.801614 9.783605-.437016 2.370595-1.261321 6.846898-1.829346 9.947127-.568025 3.102142-1.482219 8.02598-2.031119 10.944517-.548899 2.917582-1.4411 7.544019-1.983305 10.27991-.543162 2.73589-1.067198 5.311127-1.167606 5.720411l-.180736.746847zm30.696287-38.341671-2.768403.166391-1.809264-.32035-1.81022-.319395-1.837953-.838649-1.838908-.839606-1.283315-1.226895-1.284272-1.224983-.741109-1.658173c-.408328-.912282-.931408-2.461441-1.163782-3.44353l-.422671-1.784401.16926-2.858293.170216-2.857337.853949-4.477259c.469529-2.462397 1.31296-7.088834 1.874291-10.279909.561331-3.192032 1.412412-7.870108 1.889591-10.393706l.867337-4.590099 1.901066-1.581671c1.04616-.86925 2.702421-2.035901 3.681642-2.590538l1.778663-1.009821 2.320869-.71816 2.321825-.719115 2.984521-.174998 2.984521-.174997 2.430839.518299 2.429884.517342 1.71555.789879 1.714593.78988 1.438231 1.445881 1.439187 1.445881.774579 1.53099c.427453.842474 1.027035 2.490128 1.332085 3.662516l.555594 2.131527-.170217 6.301824-.170216 6.300867-.851081 3.724674c-.468572 2.048332-1.359816 5.182031-1.981392 6.963563l-1.129356 3.239845-1.38468 2.622094c-.761191 1.443012-1.934535 3.391892-2.60775 4.331906-.673214.939057-1.747106 2.158303-2.385895 2.705289-.636876.5489-1.706943 1.406674-2.375376 1.904891l-1.21542.907501-2.814305.957227-2.814304.957227zm68.862005 9.116128 3.648172.042076 3.647216-.332782c2.007212-.182648 5.290089-.5642 7.295389-.847256 2.007212-.2821 5.472737-.915151 7.70276-1.404762l4.053631-.8922.202729-1.495607c.110928-.821437.566113-3.267577 1.011735-5.436399l.809961-3.944616-.179779-.177867-.177866-.177866-1.239327.597669c-.681821.328957-2.805698 1.115012-4.718239 1.745194l-3.478913 1.145612-3.651041.708597-3.651041.706684-5.803607.012431-5.803606.009563-1.99-.634964c-1.093973-.349038-2.703377-.987827-3.576452-1.421018l-1.586453-.785098-1.31009-1.183863-1.310091-1.183863-1.022253-1.785357-1.022254-1.78727-.640701-2.239586-.640701-2.240542-.003825-4.146389-.004782-4.147346.568025-3.697899.569937-3.699811 4.98982-.23333 4.98982-.23333 18.447417.119534 18.446461.117621.556549-2.361988c.306963-1.299572.775536-3.985736 1.041379-5.969041l.483873-3.607053.010519-3.033291.010519-3.034246-.524993-2.265405-.525949-2.264449-.86925-1.499433c-.476222-.824305-1.318697-2.019643-1.869509-2.656519-.550812-.63592-1.534814-1.532902-2.186034-1.992868-.652177-.459967-1.930711-1.233589-2.842993-1.718419l-1.658173-.881681-2.896544-.698078-2.8975-.697121-3.568802-.341389-3.570715-.341388-3.31539.216117-3.316346.215161-3.979999.76406-3.979042.765017-2.488216.993565c-1.367467.54603-3.456918 1.544377-4.641738 2.216635-1.185775.672258-2.826736 1.766232-3.647216 2.43084-.822392.665564-2.243411 1.958442-3.158562 2.873593-.916107.916107-2.272099 2.55898-3.011296 3.65391-.740153 1.09493-1.87429 3.034247-2.521685 4.310868-.646439 1.277578-1.488914 3.067716-1.872378 3.979999-.382509.911326-1.07963 2.77701-1.547246 4.144477-.468573 1.368423-1.203945 3.979998-1.634267 5.804562-.431278 1.823608-1.021297 4.825342-1.312959 6.670944l-.528818 3.35651.005738 4.934356.004781 4.934357.503955 2.15639c.276362 1.184819.807092 2.976871 1.177169 3.979042.370076 1.003128 1.056679 2.495867 1.523339 3.316347s1.465006 2.142046 2.216635 2.936707 2.113358 2.000518 3.02564 2.678514c.911326.678952 2.535074 1.634266 3.607053 2.121964l1.949836.88742 2.718677.657914c1.494651.360514 3.75145.788923 5.014684.951489 1.262277.16161 3.936966.313657 5.943222.335651zm6.245403-46.716689c-9.180198 0-16.691704-.065026-16.691704-.146309 0-.079371.392071-1.236458.871163-2.570456.478135-1.333041 1.319653-3.316346 1.867596-4.408407l.999303-1.986174 2.192729-2.181254 2.193684-2.183166 2.156391-1.029903c1.184819-.567069 2.752147-1.184819 3.480825-1.372248.730591-.18743 2.819086-.43606 4.642694-.551769l3.317303-.213248 2.547505.328001 2.545592.327044 1.850384.847256 1.85134.847256 1.015559 1.09493c.557506.601494 1.22307 1.487957 1.478394 1.968961l.462835.875944.306007 1.943142.306963 1.943142-.350952 3.233151-.349995 3.234107zm99.213078 46.718602 3.650085.040163 4.142564-.490567c2.278793-.270624 5.312083-.717203 6.741708-.995478 1.427712-.276362 3.740931-.826217 5.139955-1.220201 1.398067-.395896 2.663213-.823349 2.811435-.949577.148222-.127184.542206-1.632354.877857-3.345034.334694-1.711725.757366-4.008687.938101-5.10266.179779-1.09493.273494-2.048332.207511-2.120052-.066939-.071721-.310788.021038-.543162.204642-.23333.185516-1.859946.870206-3.616615 1.522382l-3.192988 1.185776-4.547067.880725-4.548023.880725-3.865246-.131009-3.866202-.131965-2.196554-.762148-2.196553-.762147-1.696424-1.483176-1.696424-1.485088-1.126487-2.050245-1.124574-2.049288-.537425-2.74354-.535511-2.742584.003825-3.557327.002869-3.558283.65122-4.310868.652177-4.311824.688515-2.321825c.379639-1.276622.809004-2.768404.953401-3.315391.14631-.547943.753542-2.114314 1.352167-3.482737.597669-1.367467 1.664867-3.481781 2.370595-4.698158l1.283315-2.209941 1.57689-1.634267 1.576891-1.634266 1.668692-1.034685 1.670605-1.035641 2.143958-.660783c1.179082-.363383 3.263752-.834824 4.631219-1.047116l2.48726-.388246 3.647216.183604 3.648173.182647 4.310868.863513 4.311824.8616 1.752844.654089c.963921.359557 1.79492.655045 1.847515.655045.050682 0 .2821-1.231676.513517-2.736846.231418-1.504214.642614-3.979999.914195-5.500469.272537-1.522383.429365-2.832474.348082-2.911844-.07937-.080327-1.375117-.285925-2.878374-.457098-1.504214-.171172-5.591315-.475266-9.082659-.677039l-6.34868-.364339-4.477259.343301-4.476303.344257-3.317303.696165-3.31539.697122-2.136309.853949c-1.1743.469529-2.894631 1.317741-3.82317 1.883853-.928539.567069-2.108577 1.32826-2.624963 1.692599-.516386.365296-2.080845 1.788227-3.478912 3.163344l-2.538899 2.499691-1.419105 2.07702c-.779361 1.142743-2.127703 3.523857-2.996953 5.293914l-1.579759 3.216895-1.211595 3.480825c-.665564 1.91541-1.596015 5.049109-2.065544 6.964519l-.855862 3.482737-.310788 3.149956-.309832 3.150911.002869 4.145434.003825 4.144476.3127 2.411715.312701 2.411714.993565 2.480567.992609 2.480566 1.148481 1.793007 1.146568 1.793007 1.823609 1.795877 1.82552 1.79492 1.928798 1.021297 1.93071 1.019384 2.535074.704772c1.393286.386333 3.408148.830999 4.476303.986871 1.068154.155872 3.584102.302181 5.59227.324176zm54.549501-.122403 4.476303-.129097 2.819086-.721028 2.819086-.721984 1.824564-.8616c1.003128-.473354 2.644088-1.409543 3.647216-2.079888 1.003128-.670346 2.557068-1.944099 3.451181-2.830561.894113-.88742 2.22046-2.40024 2.947226-3.362248.726766-.962965 1.365555-1.706943 1.419106-1.652436.054507.053551-.113796 1.586453-.37199 3.407193-.257236 1.821695-.471441 4.243929-.475266 5.383803l-.005738 2.072239h6.085707 6.086662l.186473-4.724933.185516-4.72589.868294-6.135432c.478136-3.374679 1.249846-8.374062 1.71555-11.108996.464747-2.73589 1.272796-7.361371 1.796832-10.280866.52308-2.918538 1.352167-7.46943 1.840821-10.114474l.891244-4.808129.030601-4.153083.028688-4.15404-.938101-1.919235-.940014-1.920191-1.272797-1.222114-1.274708-1.22307-2.089452-1.058592-2.091363-1.060504-3.116486-.693296-3.116486-.693296-4.28983-.326089-4.290787-.326088-5.526288.342345c-3.04094.187429-7.317383.558462-9.506286.825261l-3.979998.481961-2.711984.010519-2.711983.010519-.39494 1.90776c-.217074 1.048072-.82048 3.539157-1.339735 5.536807-.521168 1.996693-.897938 3.677816-.83865 3.737105.058333.059289 1.508995-.270624 3.222632-.731547 1.713637-.461879 5.355116-1.219245 8.091962-1.685905l4.973564-.847256 4.476303-.183604 4.477259-.185516 2.884112.505867 2.884112.505867 1.924017.949577 1.924973.950533 1.077717 1.606535 1.078673 1.605578-.015301 2.532205-.016256 2.53316-.570894 2.778923-.57185 2.779879-11.932344.043032-11.932345.042076-3.904453 1.071023c-2.147784.589062-4.526029 1.371292-5.285308 1.737544-.759279.367207-1.518558.667476-1.687818.667476-.168303 0-1.445881.707641-2.839167 1.574978l-2.532205 1.573065-1.993824 1.990956c-1.097799 1.09493-2.498735 2.736846-3.114574 3.649128-.615838.911326-1.617053 2.816217-2.223329 4.233411l-1.103536 2.575236-.506823 2.895588-.506824 2.896544v3.038071 3.039028l.482917 2.530292.484829 2.529336.896982 1.649567c.494392.906545 1.401893 2.236717 2.014862 2.95392l1.116924 1.304353 1.982349 1.204901 1.983305 1.204901 2.271143.641658c1.24889.352864 3.148999.781273 4.223848.951489l1.952704.307919 4.477259-.12814zm4.145434-9.273913-2.653651.139616-1.75667-.448491c-.965833-.245762-2.432752-.794661-3.25897-1.219245l-1.500388-.77171-.820481-.97444c-.450403-.536468-1.138918-1.588366-1.530033-2.339038l-.710509-1.365555-.138659-3.18725-.140572-3.188206.562287-1.933579c.308876-1.063373 1.034685-2.909932 1.612273-4.101445l1.049985-2.167865 2.011037-1.995737 2.010081-1.996693 2.134396-1.027991 2.134396-1.027035 2.652695-.631138 2.653651-.630183h8.290866 8.290866l.524037.217074.524036.216117-.440841 2.602968c-.242893 1.430581-.821436 4.019206-1.28714 5.751968-.464748 1.733719-1.285228 4.280268-1.823608 5.660166-.538381 1.380855-.979221 2.601056-.979221 2.711984 0 .111883-.545075 1.116924-1.211595 2.234804l-1.210639 2.033988-1.988086 1.970873c-1.093018 1.082499-2.109534 1.968962-2.256799 1.968962-.14631 0-.816655.373902-1.488914.830043l-1.222113.82813-2.68999.851081-2.689033.850124zm107.942872 9.391534 3.149955.040164 2.985477-.48483c1.641917-.265843 3.730412-.695208 4.642694-.953401.911326-.258193 2.554199-.927583 3.647216-1.487958l1.990956-1.019384 1.711724-1.507083 1.710768-1.507082 1.803527-2.403108c.991652-1.322522 1.888634-2.627832 1.99478-2.902281l.192211-.498217-.167348 1.659129c-.091802.911326-.2974 2.404064-.45901 3.316347-.160653.912282-.389202 2.665126-.509692 3.896802l-.219942 2.237674h6.506465 6.504553v-2.237674-2.238629l.990696-8.457258c.545075-4.6513 1.351211-10.843152 1.791095-13.76169.439885-2.919494 1.119793-7.096485 1.510908-9.285388.389202-2.188903 1.080586-6.144039 1.533858-8.788127.455185-2.644088 1.275665-7.271482 1.824564-10.279909.547943-3.01034 1.426756-7.784999 1.951749-10.611735.524036-2.827693 1.340691-7.230363 1.812132-9.783605.471442-2.553243 1.316785-7.030502 1.878116-9.948084.563243-2.918538 1.381811-7.022851 1.822652-9.120909.441797-2.096145.802311-3.925491.801355-4.061281l.000002-.249587h-7.097443-7.097441l-.209423 2.073195c-.114752 1.139874-.65887 4.907581-1.206813 8.374062-.5489 3.464568-1.443969 8.986075-1.989043 12.268952-.545075 3.282877-1.069111 6.467258-1.165694 7.075446l-.177867 1.105449-.559418-.238111c-.307919-.131009-1.978524-.594801-3.71033-1.029904l-3.149955-.790836-4.310868-.33565-4.311825-.335651-3.648172.339476-3.647216.340432-3.316347.838649-3.316346.837693-3.149956 1.536727-3.151868 1.536727-2.320869 1.717462-2.320868 1.718419-2.0053 2.150652c-1.10258 1.181951-2.69477 3.137524-3.540114 4.345294l-1.533858 2.195597-1.803526 3.750494c-.990697 2.063632-2.19751 4.795697-2.680427 6.072318-.483873 1.277578-1.334954 4.107182-1.894372 6.289392l-1.014603 3.968523-.50013 5.152386-.500129 5.150474.374858 4.145433.376771 4.145433.442753 1.491782c.245761.821437.759279 2.283575 1.144656 3.249408l.69999 1.758582 1.276621 1.727024 1.277578 1.728938 1.457356 1.193426 1.457357 1.194382 1.989999.988783c1.09493.542206 2.930013 1.245065 4.07945 1.559678 1.148481.314613 3.014165.693296 4.145434.839605 1.130311.147266 3.472218.285925 5.205937.306963zm5.654428-9.406834-2.504473.131009-1.688774-.304094c-.929495-.166391-2.416496-.615838-3.305827-.996434l-1.615141-.691384-1.359817-1.115011-1.358861-1.113099-1.009822-1.934536-1.009821-1.934535-.461879-2.155434-.45901-2.15639.039207-4.310868.038251-4.310868.534555-3.814564.534556-3.812651.830999-2.652695c.457097-1.459269.833868-2.836298.83578-3.060066.003825-.222811.453273-1.416236 1.003128-2.651738.5489-1.236458 1.465007-3.142305 2.036857-4.237235.571849-1.09493 1.64096-2.799961 2.37442-3.790657.735372-.990696 2.044506-2.483435 2.908975-3.317303.864468-.831955 2.238629-1.925929 3.056241-2.427971l1.484132-.913238 2.60775-.90272 2.606794-.902719 5.47178-.002869h5.471781l3.149955.874987c1.733719.480048 3.573583 1.037554 4.089013 1.238371l.938102.364339-.182648.91037c-.100408.501086-.495348 2.701464-.875944 4.889411-.380596 2.188904-1.132224 6.367807-1.668692 9.286344-.536468 2.918538-1.360773 7.321208-1.832215 9.782649-.470485 2.462397-1.152306 5.596096-1.515689 6.963563-.362426 1.368423-.874987 3.262795-1.137962 4.210459-.262974.947665-.888375 2.590537-1.390417 3.648173-.502042 1.058591-1.380855 2.596275-1.952705 3.416755s-1.537683 1.958442-2.147784 2.526467c-.611057.569937-1.93071 1.579759-2.933838 2.246279l-1.823608 1.212552-2.636438.836736-2.636438.836737zm-488.066184 7.793606h8.05658l.578543-3.564021c.317482-1.961311.939058-5.729974 1.379899-8.374062s1.262277-7.569838 1.823608-10.943561c.562287-3.374679 1.405718-8.374062 1.873334-11.108996.467616-2.73589 1.211595-6.979819 1.651479-9.430741.440841-2.452834.885507-4.541329.986872-4.64365l.186473-.185516h21.666223 21.665267l.240981.240024.24098.24098-.376771 1.914454c-.205598 1.05381-.816655 4.302261-1.356948 7.220799s-1.44875 7.843332-2.019643 10.944517c-.568981 3.10023-1.393287 7.5029-1.830302 9.782649-.437972 2.279749-1.323479 7.054408-1.968005 10.611735-.64357 3.556371-1.169519 6.652775-1.167607 6.881323l.003825.414066h8.09005 8.091006l.357645-2.072239c.197948-1.139874.513517-3.192031.704771-4.559498.189342-1.368423.649308-4.279311 1.019385-6.467258.370077-2.187948 1.109274-6.516985 1.643829-9.617214.533599-3.100229 1.428668-8.397969 1.98713-11.772648s1.386593-8.298516 1.841778-10.942605c.453272-2.646 1.263233-7.122303 1.797788-9.949039.534556-2.827692 1.4258-7.602352 1.980437-10.612692.554637-3.008427 1.383723-7.560275 1.844646-10.114474.460922-2.553243 1.300528-7.17968 1.86664-10.279909.566112-3.10023 1.280447-6.718758 1.587409-8.042236l.558462-2.404065h-8.191414-8.19237l-.222811 1.575934c-.121447.865425-.517343 3.291484-.878813 5.388585-.362427 2.098058-1.018428 5.827514-1.460225 8.28991-.441797 2.463354-1.24889 7.163424-1.793964 10.447257-.545074 3.281921-1.239327 7.628171-1.543421 9.657377l-.552724 3.688336-12.025103.243849-12.02606.242893-10.071442-.239068c-5.539676-.131009-10.102999-.265843-10.14125-.296444-.037294-.032513.151091-1.32061.418847-2.86403.268712-1.543421.775535-4.224804 1.127443-5.95661.351907-1.732763 1.019384-5.164818 1.482219-7.628171.463791-2.461441.987828-5.52055 1.16665-6.797172.177867-1.276621.551768-3.403367.830043-4.726845.278275-1.321566.806136-4.107183 1.173344-6.188984.366252-2.081801.757367-4.022074.86925-4.310868l.200817-.525949h-8.125431-8.126388l-.519255 2.902282c-.286881 1.596015-.668433 3.870983-.848212 5.056759-.180735 1.185775-.786055 4.990776-1.345473 8.456301s-1.385636 8.614086-1.83604 11.440822c-.450403 2.827692-1.268971 7.976253-1.819783 11.440822-.552724 3.466481-1.462137 8.837853-2.023468 11.938082-.560375 3.102142-1.372249 7.503856-1.804483 9.783605-.431278 2.279749-1.252714 6.60783-1.826477 9.617214-.572806 3.010339-1.411455 7.262875-1.859946 9.451778-.449447 2.187948-.945752 4.724934-1.10258 5.63626-.158741.912282-.671302 3.542982-1.141787 5.845682-.469529 2.3027-.85395 4.428489-.85395 4.725889v.538381zm89.199011 0h7.132823l.200817-.524037c.111883-.28975.201773-1.04616.201773-1.681123 0-.636877.449447-3.945573.996434-7.352765.548899-3.407192 1.454487-8.954518 2.013906-12.329197.558462-3.373723 1.383723-8.298517 1.834127-10.943562.450403-2.644088 1.249845-7.045802 1.777707-9.783604.527861-2.734934 1.338779-6.988426 1.801614-9.449867.461878-2.462397 1.372248-7.147166 2.021556-10.410918s1.261321-6.063712 1.359817-6.223409l.180735-.291663-7.21315.088933-7.213149.088934-.60245 4.311824c-.328957 2.371551-1.051898 7.072577-1.604623 10.445344-.551768 3.374679-1.387548 8.524196-1.857077 11.440822-.469529 2.919494-1.286184 7.619564-1.816914 10.447256-.53073 2.826736-1.343561 7.153861-1.807352 9.616258-.462835 2.463353-1.293834 6.790477-1.846558 9.617213-.552725 2.827693-1.293834 6.558104-1.647655 8.290867-.354776 1.733718-.734415 3.486562-.845343 3.896803l-.19986.745891zm166.830974 0h7.080228l.212292-2.995996c.117621-1.646698.517342-4.967826.890288-7.378584.372945-2.410759 1.137005-7.217931 1.696424-10.6825.560374-3.466481 1.600797-9.234705 2.312262-12.819764.713378-3.584102 1.517602-7.147166 1.789183-7.916964.272537-.770754.494391-1.604622.494391-1.854209 0-.250543.532643-1.612272 1.182907-3.026596.650264-1.414325 1.862815-3.579321 2.694771-4.811954l1.511864-2.241499 2.022512-1.87429 2.023469-1.872378 2.49491-1.191513 2.49491-1.19247 3.814563.021038 3.812651.020082 1.875247.559418c1.03086.30792 1.963224.560375 2.072239.560375.109014 0 .197948-.351908.197948-.783186 0-.430321.372945-2.614444.829086-4.854029.455185-2.23863.829087-4.164559.829087-4.280268 0-.115708-1.081542-.539336-2.404065-.94097-1.322522-.401634-3.150911-.822393-4.062237-.936189l-1.658173-.204642-2.155434.381552c-1.185776.209423-2.948183.672258-3.916885 1.028947-.969658.355733-2.569499 1.162825-3.55637 1.793964-.985915.632095-2.52073 1.861859-3.409105 2.733021-.890288.872119-2.385895 2.630701-3.323997 3.907322-.939058 1.276622-1.920191 2.620182-2.181253 2.984521l-.47431.662695.287837-1.325391c.158741-.73059.600538-3.118398.981134-5.306345.380595-2.188904.773623-4.242017.86925-4.559499l.17691-.581412h-6.322862-6.323817v.799442c0 .439884-.373902 3.087798-.829087 5.885846-.456141 2.799004-1.208726 7.475167-1.671561 10.393705s-1.285228 7.99251-1.826477 11.275387-1.363642 7.983904-1.827433 10.445344c-.463791 2.462397-1.286184 6.790478-1.829346 9.61817-.541249 2.82578-1.443012 7.453173-2.000518 10.279909-.558462 2.827693-1.226895 6.165077-1.484132 7.419704-.259149 1.252715-.469529 2.408846-.469529 2.568543v.291663zm168.073169 0h7.238969v-2.214723-2.216635l.833868-5.494731c.459966-3.020859 1.216376-7.80795 1.683036-10.63373.46666-2.827692 1.047117-6.408926 1.290966-7.959997.244805-1.550114.891244-4.90758 1.437274-7.460823.547943-2.554199 1.229764-5.313996 1.517602-6.135432.287837-.820481.524992-1.68208.527861-1.913498.003825-.231417.62062-1.721287 1.371292-3.310609l1.366511-2.890806 1.803526-2.395458 1.802571-2.394501 1.972786-1.483176c1.084411-.816655 2.829605-1.898197 3.877677-2.405977l1.904891-.922801 4.144477.028688 4.145433.029644 1.632354.52308 1.631398.524037.275406-.170217.27445-.170216.0153-1.057635c.006694-.582369.36147-2.747366.787967-4.81291l.775535-3.754319-.872118-.341388c-.479092-.187429-1.617054-.575675-2.529336-.862556l-1.658173-.52308-2.984521.008606-2.984521.006694-2.432752.856818-2.432753.854906-1.826477 1.101624-1.82552 1.101624-2.375376 2.48726-2.37442 2.486303-1.275665 1.929755c-.700947 1.06146-1.318698 1.88194-1.372249 1.823608-.053551-.057377.328001-2.269231.847256-4.913319.519255-2.645044.951489-5.144736.959139-5.554976l.014345-.746847h-6.135433-6.134476v.212292c0 .115709-.306006 2.242454-.679908 4.724933-.373902 2.483435-1.125531 7.275307-1.667736 10.649986-.544118 3.373723-1.435363 8.82064-1.982349 12.104474-.546031 3.282877-1.370336 7.983903-1.831259 10.4463-.459966 2.461441-1.277577 6.789521-1.816914 9.616257-.539336 2.827693-1.424843 7.379541-1.968005 10.115431-.543161 2.734934-1.264189 6.354418-1.59984 8.04128l-.612014 3.06676zm-320.877565-80.92249 2.011993.006694 1.600797-.545074 1.601753-.545074 1.416237-1.437275 1.417193-1.436319.744935-1.91541.746848-1.914453.025819-2.819086.026775-2.817173-.662695-1.101624-.663652-1.100668-1.154219-.714334-1.155174-.71529h-2.492998-2.492998l-1.69738.760235-1.69738.759279-.984959 1.055722-.984959 1.05668-.774579 1.823608-.773623 1.823608-.146309 2.84108-.145353 2.84108.719115 1.412411.721028 1.411456 1.390418.631139 1.389461.630182z" fill="#b3131b"/></g></svg>